<svg width="30" height="30" viewBox="0 0 30 30" fill="none" xmlns="http://www.w3.org/2000/svg">
<g clip-path="url(#clip0_1_4)">
<path d="M29.5755 17.9489C29.2342 17.7383 28.7936 17.777 28.4981 18.0471C26.3462 19.999 23.5625 21.0745 20.6614 21.0745C14.2223 21.0745 8.9834 15.8356 8.9834 9.3965C8.9834 6.49519 10.0589 3.71175 12.0108 1.5598C12.28 1.26317 12.3205 0.823718 12.109 0.482455C11.8975 0.142107 11.4835 -0.0158217 11.101 0.0922107C4.56437 1.94318 0 7.98567 0 14.7862C0 23.2072 6.85067 30.0577 15.2715 30.0577C22.072 30.0577 28.1147 25.4933 29.9657 18.9569C30.0753 18.5708 29.9158 18.1602 29.5755 17.9489Z" fill="#1E88D0"/>
<path d="M14.8761 11.9133L17.0042 12.9764L18.0674 15.1048C18.2191 15.4092 18.5306 15.6013 18.871 15.6013C19.2116 15.6013 19.5219 15.4092 19.6746 15.1048L20.7389 12.9764L22.8661 11.9133C23.1705 11.7606 23.3626 11.45 23.3626 11.1097C23.3626 10.7693 23.1705 10.4587 22.8661 10.3061L20.7389 9.24269L19.6746 7.11455C19.3693 6.50572 18.3711 6.50572 18.0674 7.11455L17.0042 9.24269L14.8761 10.3061C14.5717 10.4578 14.3794 10.7693 14.3794 11.1097C14.3794 11.45 14.5717 11.7615 14.8761 11.9133Z" fill="#1E88D0"/>
<path d="M24.2546 4.90468H25.1529V5.80305C25.1529 6.29949 25.5549 6.70141 26.0513 6.70141C26.5477 6.70141 26.9497 6.29949 26.9497 5.80305V4.90468H27.848C28.3445 4.90468 28.7464 4.503 28.7464 4.00632C28.7464 3.50988 28.3445 3.10819 27.848 3.10819H26.9497V2.20982C26.9497 1.71315 26.5477 1.31146 26.0513 1.31146C25.5549 1.31146 25.1529 1.71315 25.1529 2.20982V3.10819H24.2546C23.7581 3.10819 23.3564 3.50988 23.3564 4.00632C23.3564 4.503 23.7581 4.90468 24.2546 4.90468Z" fill="#1E88D0"/>
</g>
<defs>
<clipPath id="clip0_1_4">
<rect width="30" height="30" fill="white"/>
</clipPath>
</defs>
</svg>
